<svg xmlns="http://www.w3.org/2000/svg" xmlns:xlink="http://www.w3.org/1999/xlink" width="476" zoomAndPan="magnify" viewBox="0 0 357 66.75" height="89" preserveAspectRatio="xMidYMid meet" version="1.2"><defs><clipPath id="9cbd258c7b"><path d="M 192.589844 6.648438 L 238.917969 6.648438 L 238.917969 58.953125 L 192.589844 58.953125 Z M 192.589844 6.648438 "/></clipPath></defs><g id="09d985fd7e"><g style="fill:#80cc29;fill-opacity:1;"><g transform="translate(238.153619, 57.124839)"><path style="stroke:none" d="M 45.578125 0 L 41.46875 0 L 35.734375 -11.078125 L 9.84375 -11.078125 L 4.109375 0 L 0 0 L 20.375 -39.390625 L 25.203125 -39.390625 Z M 22.625 -35.78125 L 11.8125 -14.859375 L 33.765625 -14.859375 L 22.953125 -35.78125 Z M 22.625 -35.78125 "/></g></g><g style="fill:#80cc29;fill-opacity:1;"><g transform="translate(276.007796, 57.124839)"><path style="stroke:none" d="M 32.078125 -16.703125 C 34.804688 -16.515625 36.875 -15.679688 38.28125 -14.203125 C 39.695312 -12.722656 40.40625 -10.671875 40.40625 -8.046875 L 40.40625 0 L 36.453125 0 L 36.453125 -7.875 C 36.453125 -12.5625 33.640625 -14.90625 28.015625 -14.90625 L 9.28125 -14.90625 L 9.28125 0 L 5.34375 0 L 5.34375 -39.390625 L 27.0625 -39.390625 C 32.050781 -39.390625 35.835938 -38.316406 38.421875 -36.171875 C 41.015625 -34.035156 42.3125 -31.207031 42.3125 -27.6875 C 42.3125 -24.71875 41.398438 -22.265625 39.578125 -20.328125 C 37.765625 -18.398438 35.265625 -17.289062 32.078125 -17 Z M 27.0625 -18.6875 C 30.695312 -18.6875 33.460938 -19.460938 35.359375 -21.015625 C 37.253906 -22.566406 38.203125 -24.617188 38.203125 -27.171875 C 38.203125 -29.691406 37.253906 -31.726562 35.359375 -33.28125 C 33.460938 -34.832031 30.695312 -35.609375 27.0625 -35.609375 L 9.28125 -35.609375 L 9.28125 -18.6875 Z M 27.0625 -18.6875 "/></g></g><g style="fill:#80cc29;fill-opacity:1;"><g transform="translate(314.536995, 57.124839)"><path style="stroke:none" d="M 9.28125 -18.125 L 9.28125 -3.765625 L 37.640625 -3.765625 L 37.640625 0 L 5.34375 0 L 5.34375 -39.390625 L 36.515625 -39.390625 L 36.515625 -35.609375 L 9.28125 -35.609375 L 9.28125 -21.890625 L 34.265625 -21.890625 L 34.265625 -18.125 Z M 9.28125 -18.125 "/></g></g><g clip-rule="nonzero" clip-path="url(#9cbd258c7b)"><path style=" stroke:none;fill-rule:nonzero;fill:#80cc28;fill-opacity:1;" d="M 213.699219 27.816406 C 213.699219 27.816406 210.394531 27.347656 210.8125 29.519531 C 210.8125 29.519531 211.222656 28.695312 212.171875 28.515625 C 212.171875 28.515625 211.167969 29.050781 210.992188 29.636719 C 212.582031 30.816406 212.695312 28.644531 213.699219 27.816406 Z M 218.53125 6.648438 C 225.078125 6.648438 231.089844 9.128906 235.628906 13.132812 C 231.445312 9.828125 226.195312 7.882812 220.425781 7.882812 C 215.53125 7.882812 210.992188 9.296875 207.164062 11.773438 C 208.867188 11.773438 211.941406 11.890625 214.359375 12.832031 C 215.539062 13.300781 217.128906 13.070312 219.011719 12.714844 C 219.421875 12.601562 219.839844 12.539062 220.246094 12.421875 C 223.667969 11.710938 227.734375 10.832031 231.855469 12.308594 C 232.03125 12.371094 232.09375 12.484375 232.03125 12.664062 C 231.96875 12.777344 231.855469 12.839844 231.675781 12.777344 C 227.910156 11.480469 224.074219 12.191406 220.769531 12.902344 C 222.179688 13.082031 224.125 13.4375 226.195312 14.136719 C 231.382812 15.320312 235.808594 13.84375 235.808594 13.78125 C 235.921875 13.78125 236.101562 13.84375 236.164062 13.960938 C 236.164062 14.136719 236.101562 14.253906 235.984375 14.316406 C 235.984375 14.316406 232.679688 15.433594 228.433594 15.027344 C 230.621094 16.082031 232.503906 17.683594 233.328125 19.921875 C 234.09375 20.808594 233.914062 22.871094 233.914062 22.871094 C 234.5625 21.21875 233.675781 19.742188 233.675781 19.742188 C 237.5 21.28125 233.496094 25.820312 233.496094 25.820312 C 233.257812 23.632812 230.316406 21.394531 232.847656 20.097656 C 231.84375 17.328125 228.957031 15.675781 226.125 14.671875 C 226.0625 14.671875 226.0625 14.671875 226.0625 14.671875 C 226 14.671875 226 14.609375 225.945312 14.609375 C 222.640625 13.488281 219.398438 13.25 219.042969 13.25 C 217.097656 13.605469 215.445312 13.835938 214.148438 13.363281 C 211.316406 12.246094 207.488281 12.308594 206.304688 12.308594 C 204.246094 13.78125 202.414062 15.488281 200.878906 17.433594 C 202.382812 16.792969 204.621094 15.96875 207.332031 15.96875 C 208.042969 15.613281 209.339844 15.96875 209.339844 15.96875 C 208.335938 15.320312 207.214844 15.726562 207.214844 15.726562 C 208.753906 13.3125 211.347656 16.617188 211.347656 16.617188 C 209.871094 16.5 207.988281 18.152344 207.394531 16.5 C 203.972656 16.5625 201.441406 17.734375 200.199219 18.445312 C 198.964844 20.214844 197.960938 22.160156 197.199219 24.21875 C 199.144531 22.683594 202.855469 20.265625 208.042969 19.261719 C 213.34375 14.722656 219.648438 15.90625 219.714844 15.90625 C 219.828125 15.96875 219.953125 16.082031 219.953125 16.199219 C 219.890625 16.375 219.777344 16.492188 219.597656 16.4375 C 219.597656 16.4375 214.054688 15.433594 209.160156 19.09375 C 212.402344 18.5625 216.230469 18.6875 220.425781 19.859375 C 221.605469 19.742188 223.257812 20.976562 223.257812 20.976562 C 222.203125 19.566406 220.488281 19.503906 220.488281 19.503906 C 223.792969 17.085938 225.558594 22.859375 225.558594 22.859375 C 223.550781 21.917969 220.078125 23.214844 220.371094 20.445312 C 215.769531 19.085938 211.703125 19.085938 208.28125 19.734375 C 208.21875 19.796875 208.21875 19.796875 208.167969 19.796875 C 202.394531 20.914062 198.441406 23.863281 196.90625 25.160156 C 196.140625 27.511719 195.722656 29.992188 195.722656 32.585938 C 195.722656 33.117188 195.785156 33.640625 195.785156 34.175781 C 196.140625 33.589844 196.550781 32.992188 196.96875 32.40625 C 196.96875 32.40625 196.96875 32.40625 196.96875 32.34375 C 199.207031 29.28125 202.269531 26.507812 205.394531 24.679688 C 207.519531 23.382812 209.640625 22.554688 211.585938 22.261719 C 213.53125 21.972656 215.300781 22.261719 216.597656 23.320312 C 217.308594 23.90625 217.832031 24.679688 218.1875 25.734375 C 219.074219 26.5 219.242188 28.445312 219.242188 28.445312 C 219.597656 26.738281 218.480469 25.441406 218.480469 25.441406 C 222.484375 26.207031 219.421875 31.457031 219.421875 31.457031 C 218.773438 29.332031 215.46875 27.679688 217.714844 25.976562 C 217.359375 24.972656 216.890625 24.273438 216.242188 23.738281 C 215.058594 22.796875 213.46875 22.503906 211.640625 22.796875 C 209.808594 23.089844 207.75 23.914062 205.6875 25.148438 C 202.855469 26.800781 200.148438 29.15625 198.023438 31.875 C 198.964844 31.464844 200.261719 30.984375 201.621094 30.460938 C 202.089844 30.285156 202.625 30.105469 203.160156 29.929688 C 207.519531 28.277344 212.476562 26.28125 213.238281 24.628906 C 213.300781 24.511719 213.417969 24.386719 213.59375 24.449219 C 213.710938 24.511719 213.773438 24.691406 213.710938 24.855469 C 213.0625 26.394531 209.285156 28.097656 205.460938 29.636719 C 207.339844 29.519531 209.996094 29.699219 211.828125 31.171875 C 212.414062 31.351562 213.007812 32.230469 213.007812 32.230469 C 212.71875 31.289062 211.828125 30.996094 211.828125 30.996094 C 214.011719 30.285156 213.835938 33.589844 213.835938 33.589844 C 213.074219 32.824219 211.179688 32.824219 211.535156 31.644531 C 208.699219 29.292969 203.640625 30.347656 203.335938 30.460938 C 202.804688 30.640625 202.28125 30.816406 201.800781 30.996094 C 199.96875 31.707031 198.316406 32.292969 197.375 32.761719 C 196.789062 33.527344 196.320312 34.351562 195.902344 35.179688 C 196.371094 39.78125 198.085938 43.964844 200.730469 47.4375 L 200.847656 47.257812 L 201.085938 47.078125 C 207.8125 41.777344 218.949219 47.015625 225.789062 49.851562 C 225.496094 50.027344 224.554688 49.964844 224.316406 49.964844 C 223.257812 49.964844 222.128906 49.789062 221.011719 49.609375 C 219.890625 49.433594 218.773438 49.253906 217.652344 49.023438 C 217.296875 48.910156 216.890625 48.847656 216.472656 48.730469 C 216.292969 48.730469 216.117188 48.667969 215.9375 48.617188 L 215.40625 48.441406 L 215.40625 49.023438 C 215.40625 49.558594 215.875 50.144531 216.167969 50.5 C 217.351562 51.679688 219.292969 52.382812 220.820312 52.851562 C 223.121094 53.4375 226.1875 53.144531 228.539062 52.851562 C 230.484375 52.558594 232.429688 52.140625 234.375 51.671875 C 235.136719 51.492188 235.847656 51.316406 236.613281 51.199219 C 237.019531 51.085938 237.5 50.960938 237.910156 50.90625 C 238.085938 50.84375 238.796875 50.792969 238.914062 50.90625 L 238.914062 50.96875 C 233.789062 56.09375 226.824219 58.929688 219.578125 58.929688 C 212.507812 58.929688 205.785156 56.21875 200.710938 51.378906 C 200.648438 51.378906 200.597656 51.316406 200.535156 51.261719 C 200.535156 51.199219 200.472656 51.199219 200.417969 51.148438 C 200.125 50.855469 199.832031 50.5 199.53125 50.207031 C 199.464844 50.207031 199.464844 50.207031 199.464844 50.144531 C 199.402344 50.082031 199.351562 50.027344 199.226562 49.902344 C 199.164062 49.839844 199.046875 49.726562 198.984375 49.609375 C 195.011719 45.082031 192.597656 39.132812 192.597656 32.585938 C 192.597656 18.257812 204.203125 6.648438 218.53125 6.648438 Z M 226.488281 19.03125 C 226.488281 19.03125 227.492188 14.671875 224.480469 15.027344 C 224.480469 15.027344 225.539062 15.675781 225.664062 16.972656 C 225.664062 16.972656 225.078125 15.558594 224.304688 15.265625 C 222.546875 17.203125 225.484375 17.609375 226.488281 19.03125 Z M 220.007812 9.242188 C 220.007812 9.242188 215.582031 9.421875 216.703125 12.246094 C 216.703125 12.246094 217.058594 11.011719 218.238281 10.539062 C 218.238281 10.539062 217.058594 11.480469 216.941406 12.371094 C 219.304688 13.488281 218.949219 10.539062 220.007812 9.242188 Z M 204.683594 17.789062 C 204.683594 17.789062 201.378906 17.902344 202.207031 20.027344 C 202.207031 20.027344 202.445312 19.085938 203.324219 18.730469 C 203.324219 18.730469 202.4375 19.441406 202.382812 20.089844 C 204.152344 20.976562 203.859375 18.738281 204.683594 17.789062 Z M 203.210938 23.277344 C 203.210938 23.277344 200.03125 24.28125 201.378906 26.050781 C 201.378906 26.050781 201.378906 25.109375 202.144531 24.511719 C 202.144531 24.511719 201.496094 25.453125 201.609375 26.050781 C 203.503906 26.457031 202.675781 24.398438 203.210938 23.277344 Z M 207.332031 22.503906 C 207.332031 22.503906 205.792969 19.734375 204.382812 21.324219 C 204.382812 21.324219 205.269531 21.207031 205.917969 21.792969 C 205.917969 21.792969 204.914062 21.324219 204.382812 21.550781 C 204.382812 23.457031 206.160156 22.210938 207.332031 22.503906 Z M 237.28125 18.207031 C 237.28125 18.207031 236.8125 14.074219 234.28125 15.257812 C 234.28125 15.257812 235.398438 15.550781 235.933594 16.617188 C 235.933594 16.617188 234.992188 15.558594 234.164062 15.558594 C 233.214844 17.789062 235.984375 17.265625 237.28125 18.207031 Z M 218.0625 18.96875 C 218.0625 18.96875 218.46875 16.261719 216.648438 16.617188 C 216.648438 16.617188 217.359375 16.972656 217.476562 17.734375 C 217.476562 17.734375 217.066406 16.910156 216.535156 16.730469 C 215.582031 18.027344 217.414062 18.144531 218.0625 18.96875 Z M 219.304688 23.277344 C 219.304688 23.277344 219.777344 19.972656 217.601562 20.445312 C 217.601562 20.445312 218.425781 20.851562 218.605469 21.804688 C 218.605469 21.804688 218.070312 20.746094 217.484375 20.570312 C 216.292969 22.160156 218.480469 22.273438 219.304688 23.277344 Z M 209.988281 24.21875 C 209.988281 24.21875 206.808594 25.222656 208.15625 26.992188 C 208.15625 26.992188 208.15625 26.050781 208.921875 25.453125 C 208.921875 25.453125 208.273438 26.394531 208.386719 26.992188 C 210.28125 27.398438 209.402344 25.339844 209.988281 24.21875 Z M 209.988281 24.21875 "/></g><g style="fill:#80cc29;fill-opacity:1;"><g transform="translate(-0.253505, 58.731354)"><path style="stroke:none" d="M 27.015625 -39.46875 C 32.015625 -39.46875 35.8125 -38.367188 38.40625 -36.171875 C 41 -33.972656 42.296875 -30.992188 42.296875 -27.234375 C 42.296875 -23.441406 41 -20.441406 38.40625 -18.234375 C 35.8125 -16.035156 32.015625 -14.9375 27.015625 -14.9375 L 9.296875 -14.9375 L 9.296875 0 L 5.359375 0 L 5.359375 -39.46875 Z M 27.015625 -18.71875 C 30.691406 -18.71875 33.46875 -19.488281 35.34375 -21.03125 C 37.226562 -22.570312 38.171875 -24.640625 38.171875 -27.234375 C 38.171875 -29.796875 37.226562 -31.84375 35.34375 -33.375 C 33.46875 -34.914062 30.691406 -35.6875 27.015625 -35.6875 L 9.296875 -35.6875 L 9.296875 -18.71875 Z M 27.015625 -18.71875 "/></g></g><g style="fill:#80cc29;fill-opacity:1;"><g transform="translate(37.408929, 58.731354)"><path style="stroke:none" d="M 37.4375 0 L 5.359375 0 L 5.359375 -39.46875 L 9.296875 -39.46875 L 9.296875 -3.78125 L 37.4375 -3.78125 Z M 37.4375 0 "/></g></g><g style="fill:#80cc29;fill-opacity:1;"><g transform="translate(68.248858, 58.731354)"><path style="stroke:none" d="M 45.671875 0 L 41.5625 0 L 35.8125 -11.109375 L 9.875 -11.109375 L 4.109375 0 L 0 0 L 20.40625 -39.46875 L 25.265625 -39.46875 Z M 22.671875 -35.859375 L 11.84375 -14.890625 L 33.828125 -14.890625 L 23 -35.859375 Z M 22.671875 -35.859375 "/></g></g><g style="fill:#80cc29;fill-opacity:1;"><g transform="translate(106.193222, 58.731354)"><path style="stroke:none" d="M 9.296875 0 L 5.359375 0 L 5.359375 -39.46875 L 11.671875 -39.46875 L 37.890625 -3.71875 L 38.171875 -3.71875 L 38.171875 -39.46875 L 42.125 -39.46875 L 42.125 0 L 35.8125 0 L 9.59375 -35.75 L 9.296875 -35.75 Z M 9.296875 0 "/></g></g><g style="fill:#80cc29;fill-opacity:1;"><g transform="translate(145.941883, 58.731354)"><path style="stroke:none" d="M 0.84375 -39.46875 L 37.71875 -39.46875 L 37.71875 -35.6875 L 21.265625 -35.6875 L 21.265625 0 L 17.3125 0 L 17.3125 -35.6875 L 0.84375 -35.6875 Z M 0.84375 -39.46875 "/></g></g></g></svg>