<svg xmlns="http://www.w3.org/2000/svg" xmlns:xlink="http://www.w3.org/1999/xlink" width="500" zoomAndPan="magnify" viewBox="0 0 375 374.999991" height="500" preserveAspectRatio="xMidYMid meet" version="1.2"><defs><clipPath id="acced094e1"><path d="M 21.328125 0 L 353.578125 0 L 353.578125 375 L 21.328125 375 Z M 21.328125 0 "/></clipPath></defs><g id="6b207c012b"><g clip-rule="nonzero" clip-path="url(#acced094e1)"><path style=" stroke:none;fill-rule:nonzero;fill:#90d02f;fill-opacity:1;" d="M 172.71875 151.789062 C 172.71875 151.789062 149.019531 148.414062 152.019531 164.011719 C 152.019531 164.011719 154.941406 158.085938 161.769531 156.8125 C 161.769531 156.8125 154.566406 160.636719 153.292969 164.835938 C 164.691406 173.3125 165.515625 157.710938 172.71875 151.789062 Z M 207.363281 0 C 254.308594 0 297.429688 17.773438 329.980469 46.496094 C 299.980469 22.796875 262.335938 8.847656 220.9375 8.847656 C 185.839844 8.847656 153.292969 18.972656 125.84375 36.746094 C 138.070312 36.746094 160.117188 37.570312 177.441406 44.320312 C 185.914062 47.695312 197.316406 46.046875 210.8125 43.496094 C 213.738281 42.671875 216.738281 42.222656 219.664062 41.398438 C 244.1875 36.296875 273.359375 29.996094 302.90625 40.570312 C 304.179688 41.023438 304.632812 41.847656 304.179688 43.121094 C 303.730469 43.945312 302.90625 44.394531 301.632812 43.945312 C 274.632812 34.648438 247.109375 39.746094 223.414062 44.847656 C 233.535156 46.121094 247.484375 48.671875 262.335938 53.695312 C 299.53125 62.167969 331.253906 51.597656 331.253906 51.144531 C 332.078125 51.144531 333.355469 51.597656 333.804688 52.421875 C 333.804688 53.695312 333.355469 54.519531 332.527344 54.96875 C 332.527344 54.96875 308.832031 62.996094 278.382812 60.070312 C 294.058594 67.644531 307.554688 79.117188 313.480469 95.167969 C 318.953125 101.542969 317.679688 116.316406 317.679688 116.316406 C 322.328125 104.464844 315.953125 93.890625 315.953125 93.890625 C 343.402344 104.917969 314.679688 137.464844 314.679688 137.464844 C 312.957031 121.789062 291.882812 105.742188 310.03125 96.441406 C 302.832031 76.570312 282.132812 64.71875 261.808594 57.519531 C 261.359375 57.519531 261.359375 57.519531 261.359375 57.519531 C 260.910156 57.519531 260.910156 57.070312 260.535156 57.070312 C 236.835938 49.046875 213.589844 47.320312 211.039062 47.320312 C 197.089844 49.871094 185.242188 51.519531 175.941406 48.144531 C 155.617188 40.121094 128.171875 40.570312 119.695312 40.570312 C 104.921875 51.144531 91.796875 63.371094 80.773438 77.320312 C 91.574219 72.742188 107.621094 66.820312 127.046875 66.820312 C 132.144531 64.269531 141.445312 66.820312 141.445312 66.820312 C 134.246094 62.167969 126.21875 65.09375 126.21875 65.09375 C 137.246094 47.769531 155.84375 71.46875 155.84375 71.46875 C 145.269531 70.644531 131.769531 82.492188 127.496094 70.644531 C 102.972656 71.09375 84.824219 79.492188 75.898438 84.59375 C 67.050781 97.265625 59.851562 111.214844 54.375 125.988281 C 68.324219 114.964844 94.949219 97.640625 132.144531 90.441406 C 170.167969 57.894531 215.386719 66.371094 215.839844 66.371094 C 216.664062 66.820312 217.5625 67.644531 217.5625 68.46875 C 217.113281 69.746094 216.289062 70.570312 215.011719 70.195312 C 215.011719 70.195312 175.265625 62.996094 140.167969 89.242188 C 163.417969 85.417969 190.867188 86.316406 220.9375 94.71875 C 229.414062 93.890625 241.261719 102.742188 241.261719 102.742188 C 233.6875 92.617188 221.386719 92.167969 221.386719 92.167969 C 245.085938 74.84375 257.761719 116.242188 257.761719 116.242188 C 243.359375 109.492188 218.464844 118.789062 220.5625 98.917969 C 187.566406 89.167969 158.394531 89.167969 133.871094 93.816406 C 133.421875 94.265625 133.421875 94.265625 133.046875 94.265625 C 91.648438 102.292969 63.300781 123.441406 52.277344 132.738281 C 46.800781 149.613281 43.800781 167.386719 43.800781 185.984375 C 43.800781 189.808594 44.253906 193.558594 44.253906 197.382812 C 46.800781 193.183594 49.726562 188.910156 52.726562 184.710938 C 52.726562 184.710938 52.726562 184.710938 52.726562 184.261719 C 68.773438 162.285156 90.75 142.414062 113.171875 129.289062 C 128.394531 119.988281 143.621094 114.066406 157.566406 111.964844 C 171.515625 109.867188 184.191406 111.964844 193.488281 119.539062 C 198.589844 123.738281 202.339844 129.289062 204.890625 136.863281 C 211.261719 142.339844 212.464844 156.289062 212.464844 156.289062 C 215.011719 144.0625 206.988281 134.765625 206.988281 134.765625 C 235.710938 140.238281 213.738281 177.886719 213.738281 177.886719 C 209.089844 162.660156 185.390625 150.8125 201.515625 138.589844 C 198.964844 131.390625 195.589844 126.363281 190.941406 122.539062 C 182.464844 115.789062 171.066406 113.691406 157.941406 115.789062 C 144.820312 117.890625 130.046875 123.816406 115.273438 132.664062 C 94.949219 144.511719 75.523438 161.386719 60.300781 180.886719 C 67.050781 177.960938 76.351562 174.511719 86.097656 170.761719 C 89.472656 169.484375 93.296875 168.210938 97.121094 166.9375 C 128.394531 155.085938 163.941406 140.761719 169.417969 128.914062 C 169.867188 128.089844 170.691406 127.191406 171.96875 127.640625 C 172.792969 128.089844 173.242188 129.363281 172.792969 130.5625 C 168.140625 141.589844 141.070312 153.8125 113.621094 164.835938 C 127.121094 164.011719 146.167969 165.285156 159.292969 175.859375 C 163.492188 177.136719 167.765625 183.433594 167.765625 183.433594 C 165.667969 176.683594 159.292969 174.585938 159.292969 174.585938 C 174.964844 169.484375 173.691406 193.183594 173.691406 193.183594 C 168.21875 187.710938 154.644531 187.710938 157.191406 179.234375 C 136.871094 162.363281 100.574219 169.9375 98.398438 170.761719 C 94.574219 172.035156 90.824219 173.3125 87.375 174.585938 C 74.25 179.683594 62.402344 183.886719 55.652344 187.257812 C 51.453125 192.734375 48.078125 198.660156 45.078125 204.582031 C 48.453125 237.582031 60.75 267.578125 79.722656 292.476562 L 80.550781 291.199219 L 82.273438 289.925781 C 130.496094 251.902344 210.363281 289.476562 259.410156 309.800781 C 257.308594 311.074219 250.558594 310.625 248.835938 310.625 C 241.261719 310.625 233.160156 309.347656 225.136719 308.074219 C 217.113281 306.800781 209.089844 305.523438 201.0625 303.875 C 198.515625 303.050781 195.589844 302.601562 192.589844 301.773438 C 191.316406 301.773438 190.039062 301.324219 188.765625 300.949219 L 184.941406 299.675781 L 184.941406 303.875 C 184.941406 307.699219 188.316406 311.898438 190.414062 314.449219 C 198.890625 322.921875 212.839844 327.949219 223.789062 331.324219 C 240.285156 335.523438 262.257812 333.421875 279.132812 331.324219 C 293.082031 329.222656 307.03125 326.222656 320.980469 322.847656 C 326.453125 321.574219 331.554688 320.296875 337.027344 319.472656 C 339.953125 318.648438 343.402344 317.75 346.328125 317.375 C 347.601562 316.925781 352.703125 316.550781 353.527344 317.375 L 353.527344 317.824219 C 316.78125 354.570312 266.835938 374.894531 214.863281 374.894531 C 164.167969 374.894531 115.945312 355.472656 79.574219 320.75 C 79.125 320.75 78.75 320.296875 78.300781 319.921875 C 78.300781 319.472656 77.847656 319.472656 77.476562 319.097656 C 75.375 317 73.273438 314.449219 71.101562 312.347656 C 70.648438 312.347656 70.648438 312.347656 70.648438 311.898438 C 70.199219 311.449219 69.824219 311.074219 68.925781 310.175781 C 68.476562 309.722656 67.652344 308.898438 67.199219 308.074219 C 38.703125 275.601562 21.378906 232.929688 21.378906 185.984375 C 21.378906 83.242188 104.621094 0 207.363281 0 Z M 264.433594 88.792969 C 264.433594 88.792969 271.632812 57.519531 250.035156 60.070312 C 250.035156 60.070312 257.609375 64.71875 258.507812 74.019531 C 258.507812 74.019531 254.308594 63.894531 248.761719 61.796875 C 236.160156 75.667969 257.234375 78.59375 264.433594 88.792969 Z M 217.9375 18.597656 C 217.9375 18.597656 186.214844 19.875 194.238281 40.121094 C 194.238281 40.121094 196.789062 31.273438 205.265625 27.898438 C 205.265625 27.898438 196.789062 34.648438 195.964844 41.023438 C 212.914062 49.046875 210.363281 27.898438 217.9375 18.597656 Z M 108.070312 79.867188 C 108.070312 79.867188 84.375 80.695312 90.296875 95.917969 C 90.296875 95.917969 92.023438 89.167969 98.324219 86.617188 C 98.324219 86.617188 91.949219 91.71875 91.574219 96.367188 C 104.246094 102.742188 102.148438 86.691406 108.070312 79.867188 Z M 97.496094 119.238281 C 97.496094 119.238281 74.699219 126.441406 84.375 139.113281 C 84.375 139.113281 84.375 132.363281 89.847656 128.089844 C 89.847656 128.089844 85.199219 134.839844 86.023438 139.113281 C 99.597656 142.039062 93.671875 127.265625 97.496094 119.238281 Z M 127.046875 113.691406 C 127.046875 113.691406 116.019531 93.816406 105.898438 105.214844 C 105.898438 105.214844 112.273438 104.390625 116.921875 108.589844 C 116.921875 108.589844 109.722656 105.214844 105.898438 106.867188 C 105.898438 120.515625 118.644531 111.589844 127.046875 113.691406 Z M 341.828125 82.867188 C 341.828125 82.867188 338.453125 53.246094 320.304688 61.71875 C 320.304688 61.71875 328.328125 63.820312 332.152344 71.46875 C 332.152344 71.46875 325.402344 63.894531 319.480469 63.894531 C 312.65625 79.867188 332.527344 76.117188 341.828125 82.867188 Z M 203.988281 88.34375 C 203.988281 88.34375 206.914062 68.917969 193.863281 71.46875 C 193.863281 71.46875 198.964844 74.019531 199.789062 79.492188 C 199.789062 79.492188 196.863281 73.570312 193.039062 72.292969 C 186.214844 81.59375 199.339844 82.417969 203.988281 88.34375 Z M 212.914062 119.238281 C 212.914062 119.238281 216.289062 95.542969 200.691406 98.917969 C 200.691406 98.917969 206.613281 101.839844 207.890625 108.667969 C 207.890625 108.667969 204.0625 101.089844 199.863281 99.816406 C 191.316406 111.214844 206.988281 112.039062 212.914062 119.238281 Z M 146.09375 125.988281 C 146.09375 125.988281 123.296875 133.1875 132.96875 145.863281 C 132.96875 145.863281 132.96875 139.113281 138.445312 134.839844 C 138.445312 134.839844 133.796875 141.589844 134.621094 145.863281 C 148.195312 148.789062 141.894531 134.015625 146.09375 125.988281 Z M 146.09375 125.988281 "/></g><g style="fill:#90d02f;fill-opacity:1;"><g transform="translate(201.309502, 356.387195)"><path style="stroke:none" d="M 2.859375 -3.890625 C 3.347656 -3.890625 3.785156 -3.785156 4.171875 -3.578125 C 4.554688 -3.367188 4.859375 -3.082031 5.078125 -2.71875 C 5.296875 -2.351562 5.40625 -1.929688 5.40625 -1.453125 C 5.40625 -0.992188 5.320312 -0.628906 5.15625 -0.359375 C 5 -0.0976562 4.773438 0.03125 4.484375 0.03125 C 4.304688 0.03125 4.160156 -0.0195312 4.046875 -0.125 C 3.941406 -0.238281 3.878906 -0.390625 3.859375 -0.578125 C 3.753906 -0.378906 3.601562 -0.226562 3.40625 -0.125 C 3.21875 -0.0195312 3.003906 0.03125 2.765625 0.03125 C 2.503906 0.03125 2.269531 -0.03125 2.0625 -0.15625 C 1.863281 -0.28125 1.703125 -0.445312 1.578125 -0.65625 C 1.460938 -0.875 1.40625 -1.117188 1.40625 -1.390625 C 1.40625 -1.660156 1.460938 -1.90625 1.578125 -2.125 C 1.703125 -2.34375 1.863281 -2.507812 2.0625 -2.625 C 2.269531 -2.75 2.503906 -2.8125 2.765625 -2.8125 C 3.003906 -2.8125 3.21875 -2.757812 3.40625 -2.65625 C 3.59375 -2.5625 3.742188 -2.421875 3.859375 -2.234375 L 3.859375 -2.78125 L 4.21875 -2.78125 L 4.21875 -0.703125 C 4.21875 -0.554688 4.25 -0.445312 4.3125 -0.375 C 4.375 -0.3125 4.453125 -0.28125 4.546875 -0.28125 C 4.722656 -0.28125 4.859375 -0.382812 4.953125 -0.59375 C 5.054688 -0.800781 5.109375 -1.085938 5.109375 -1.453125 C 5.109375 -1.878906 5.015625 -2.253906 4.828125 -2.578125 C 4.640625 -2.898438 4.375 -3.148438 4.03125 -3.328125 C 3.6875 -3.515625 3.296875 -3.609375 2.859375 -3.609375 C 2.410156 -3.609375 2.015625 -3.515625 1.671875 -3.328125 C 1.328125 -3.140625 1.0625 -2.878906 0.875 -2.546875 C 0.6875 -2.210938 0.59375 -1.828125 0.59375 -1.390625 C 0.59375 -0.960938 0.6875 -0.578125 0.875 -0.234375 C 1.0625 0.0976562 1.320312 0.351562 1.65625 0.53125 C 2 0.71875 2.390625 0.8125 2.828125 0.8125 C 3.003906 0.8125 3.1875 0.789062 3.375 0.75 C 3.5625 0.71875 3.734375 0.660156 3.890625 0.578125 L 3.984375 0.84375 C 3.828125 0.925781 3.644531 0.988281 3.4375 1.03125 C 3.226562 1.070312 3.023438 1.09375 2.828125 1.09375 C 2.328125 1.09375 1.882812 0.988281 1.5 0.78125 C 1.113281 0.570312 0.8125 0.28125 0.59375 -0.09375 C 0.382812 -0.476562 0.28125 -0.910156 0.28125 -1.390625 C 0.28125 -1.878906 0.390625 -2.3125 0.609375 -2.6875 C 0.828125 -3.0625 1.128906 -3.351562 1.515625 -3.5625 C 1.910156 -3.78125 2.359375 -3.890625 2.859375 -3.890625 Z M 2.8125 -0.296875 C 3.007812 -0.296875 3.1875 -0.335938 3.34375 -0.421875 C 3.507812 -0.515625 3.632812 -0.644531 3.71875 -0.8125 C 3.8125 -0.976562 3.859375 -1.171875 3.859375 -1.390625 C 3.859375 -1.609375 3.8125 -1.800781 3.71875 -1.96875 C 3.632812 -2.132812 3.507812 -2.257812 3.34375 -2.34375 C 3.1875 -2.4375 3.007812 -2.484375 2.8125 -2.484375 C 2.613281 -2.484375 2.429688 -2.4375 2.265625 -2.34375 C 2.109375 -2.257812 1.984375 -2.132812 1.890625 -1.96875 C 1.804688 -1.800781 1.765625 -1.609375 1.765625 -1.390625 C 1.765625 -1.179688 1.804688 -0.992188 1.890625 -0.828125 C 1.984375 -0.660156 2.109375 -0.53125 2.265625 -0.4375 C 2.429688 -0.34375 2.613281 -0.296875 2.8125 -0.296875 Z M 2.8125 -0.296875 "/></g></g><g style="fill:#90d02f;fill-opacity:1;"><g transform="translate(206.993694, 356.387195)"><path style="stroke:none" d="M 2.03125 -2.921875 C 2.300781 -2.921875 2.546875 -2.859375 2.765625 -2.734375 C 2.992188 -2.609375 3.164062 -2.429688 3.28125 -2.203125 C 3.40625 -1.984375 3.46875 -1.734375 3.46875 -1.453125 C 3.46875 -1.160156 3.40625 -0.898438 3.28125 -0.671875 C 3.164062 -0.453125 3 -0.28125 2.78125 -0.15625 C 2.5625 -0.03125 2.3125 0.03125 2.03125 0.03125 C 1.800781 0.03125 1.585938 -0.015625 1.390625 -0.109375 C 1.203125 -0.210938 1.050781 -0.359375 0.9375 -0.546875 L 0.9375 1.0625 L 0.546875 1.0625 L 0.546875 -2.890625 L 0.921875 -2.890625 L 0.921875 -2.328125 C 1.035156 -2.515625 1.1875 -2.660156 1.375 -2.765625 C 1.570312 -2.867188 1.789062 -2.921875 2.03125 -2.921875 Z M 2 -0.3125 C 2.207031 -0.3125 2.394531 -0.359375 2.5625 -0.453125 C 2.726562 -0.546875 2.851562 -0.675781 2.9375 -0.84375 C 3.03125 -1.019531 3.078125 -1.222656 3.078125 -1.453125 C 3.078125 -1.671875 3.03125 -1.863281 2.9375 -2.03125 C 2.851562 -2.195312 2.726562 -2.328125 2.5625 -2.421875 C 2.394531 -2.523438 2.207031 -2.578125 2 -2.578125 C 1.800781 -2.578125 1.617188 -2.523438 1.453125 -2.421875 C 1.285156 -2.328125 1.15625 -2.195312 1.0625 -2.03125 C 0.96875 -1.863281 0.921875 -1.671875 0.921875 -1.453125 C 0.921875 -1.222656 0.96875 -1.019531 1.0625 -0.84375 C 1.15625 -0.675781 1.285156 -0.546875 1.453125 -0.453125 C 1.617188 -0.359375 1.800781 -0.3125 2 -0.3125 Z M 2 -0.3125 "/></g></g><g style="fill:#90d02f;fill-opacity:1;"><g transform="translate(210.724464, 356.387195)"><path style="stroke:none" d="M 0.546875 -4.078125 L 0.9375 -4.078125 L 0.9375 0 L 0.546875 0 Z M 0.546875 -4.078125 "/></g></g><g style="fill:#90d02f;fill-opacity:1;"><g transform="translate(212.204667, 356.387195)"><path style="stroke:none" d="M 1.5625 -2.921875 C 1.9375 -2.921875 2.222656 -2.820312 2.421875 -2.625 C 2.628906 -2.4375 2.734375 -2.160156 2.734375 -1.796875 L 2.734375 0 L 2.359375 0 L 2.359375 -0.453125 C 2.265625 -0.296875 2.128906 -0.175781 1.953125 -0.09375 C 1.785156 -0.0078125 1.585938 0.03125 1.359375 0.03125 C 1.035156 0.03125 0.773438 -0.046875 0.578125 -0.203125 C 0.390625 -0.359375 0.296875 -0.5625 0.296875 -0.8125 C 0.296875 -1.0625 0.382812 -1.257812 0.5625 -1.40625 C 0.75 -1.5625 1.035156 -1.640625 1.421875 -1.640625 L 2.34375 -1.640625 L 2.34375 -1.8125 C 2.34375 -2.0625 2.269531 -2.25 2.125 -2.375 C 1.988281 -2.507812 1.785156 -2.578125 1.515625 -2.578125 C 1.335938 -2.578125 1.160156 -2.546875 0.984375 -2.484375 C 0.816406 -2.421875 0.675781 -2.335938 0.5625 -2.234375 L 0.375 -2.53125 C 0.519531 -2.65625 0.695312 -2.75 0.90625 -2.8125 C 1.113281 -2.882812 1.332031 -2.921875 1.5625 -2.921875 Z M 1.421875 -0.28125 C 1.640625 -0.28125 1.828125 -0.328125 1.984375 -0.421875 C 2.140625 -0.523438 2.257812 -0.675781 2.34375 -0.875 L 2.34375 -1.34375 L 1.4375 -1.34375 C 0.9375 -1.34375 0.6875 -1.171875 0.6875 -0.828125 C 0.6875 -0.660156 0.75 -0.523438 0.875 -0.421875 C 1.007812 -0.328125 1.191406 -0.28125 1.421875 -0.28125 Z M 1.421875 -0.28125 "/></g></g><g style="fill:#90d02f;fill-opacity:1;"><g transform="translate(215.451204, 356.387195)"><path style="stroke:none" d="M 2.015625 -2.921875 C 2.378906 -2.921875 2.664062 -2.8125 2.875 -2.59375 C 3.09375 -2.382812 3.203125 -2.078125 3.203125 -1.671875 L 3.203125 0 L 2.8125 0 L 2.8125 -1.640625 C 2.8125 -1.941406 2.734375 -2.171875 2.578125 -2.328125 C 2.429688 -2.484375 2.222656 -2.5625 1.953125 -2.5625 C 1.640625 -2.5625 1.390625 -2.46875 1.203125 -2.28125 C 1.023438 -2.09375 0.9375 -1.835938 0.9375 -1.515625 L 0.9375 0 L 0.546875 0 L 0.546875 -2.890625 L 0.921875 -2.890625 L 0.921875 -2.359375 C 1.023438 -2.535156 1.171875 -2.671875 1.359375 -2.765625 C 1.546875 -2.867188 1.765625 -2.921875 2.015625 -2.921875 Z M 2.015625 -2.921875 "/></g></g><g style="fill:#90d02f;fill-opacity:1;"><g transform="translate(219.176467, 356.387195)"><path style="stroke:none" d="M 2.0625 -0.171875 C 1.988281 -0.109375 1.898438 -0.0546875 1.796875 -0.015625 C 1.691406 0.015625 1.578125 0.03125 1.453125 0.03125 C 1.179688 0.03125 0.972656 -0.0390625 0.828125 -0.1875 C 0.679688 -0.332031 0.609375 -0.539062 0.609375 -0.8125 L 0.609375 -2.5625 L 0.09375 -2.5625 L 0.09375 -2.890625 L 0.609375 -2.890625 L 0.609375 -3.53125 L 1 -3.53125 L 1 -2.890625 L 1.875 -2.890625 L 1.875 -2.5625 L 1 -2.5625 L 1 -0.84375 C 1 -0.664062 1.039062 -0.53125 1.125 -0.4375 C 1.21875 -0.351562 1.34375 -0.3125 1.5 -0.3125 C 1.582031 -0.3125 1.660156 -0.320312 1.734375 -0.34375 C 1.804688 -0.375 1.875 -0.410156 1.9375 -0.453125 Z M 2.0625 -0.171875 "/></g></g><g style="fill:#90d02f;fill-opacity:1;"><g transform="translate(221.410528, 356.387195)"><path style="stroke:none" d="M 1.75 0.03125 C 1.457031 0.03125 1.195312 -0.03125 0.96875 -0.15625 C 0.75 -0.28125 0.570312 -0.453125 0.4375 -0.671875 C 0.3125 -0.898438 0.25 -1.160156 0.25 -1.453125 C 0.25 -1.734375 0.3125 -1.984375 0.4375 -2.203125 C 0.570312 -2.429688 0.75 -2.609375 0.96875 -2.734375 C 1.195312 -2.859375 1.457031 -2.921875 1.75 -2.921875 C 2 -2.921875 2.21875 -2.867188 2.40625 -2.765625 C 2.601562 -2.671875 2.757812 -2.53125 2.875 -2.34375 L 2.578125 -2.140625 C 2.484375 -2.285156 2.363281 -2.394531 2.21875 -2.46875 C 2.070312 -2.539062 1.914062 -2.578125 1.75 -2.578125 C 1.539062 -2.578125 1.347656 -2.53125 1.171875 -2.4375 C 1.003906 -2.34375 0.875 -2.207031 0.78125 -2.03125 C 0.695312 -1.863281 0.65625 -1.671875 0.65625 -1.453125 C 0.65625 -1.222656 0.695312 -1.019531 0.78125 -0.84375 C 0.875 -0.675781 1.003906 -0.546875 1.171875 -0.453125 C 1.347656 -0.359375 1.539062 -0.3125 1.75 -0.3125 C 1.914062 -0.3125 2.070312 -0.347656 2.21875 -0.421875 C 2.363281 -0.492188 2.484375 -0.601562 2.578125 -0.75 L 2.875 -0.546875 C 2.757812 -0.359375 2.601562 -0.210938 2.40625 -0.109375 C 2.207031 -0.015625 1.988281 0.03125 1.75 0.03125 Z M 1.75 0.03125 "/></g></g><g style="fill:#90d02f;fill-opacity:1;"><g transform="translate(224.508493, 356.387195)"><path style="stroke:none" d="M 1.5625 -2.921875 C 1.9375 -2.921875 2.222656 -2.820312 2.421875 -2.625 C 2.628906 -2.4375 2.734375 -2.160156 2.734375 -1.796875 L 2.734375 0 L 2.359375 0 L 2.359375 -0.453125 C 2.265625 -0.296875 2.128906 -0.175781 1.953125 -0.09375 C 1.785156 -0.0078125 1.585938 0.03125 1.359375 0.03125 C 1.035156 0.03125 0.773438 -0.046875 0.578125 -0.203125 C 0.390625 -0.359375 0.296875 -0.5625 0.296875 -0.8125 C 0.296875 -1.0625 0.382812 -1.257812 0.5625 -1.40625 C 0.75 -1.5625 1.035156 -1.640625 1.421875 -1.640625 L 2.34375 -1.640625 L 2.34375 -1.8125 C 2.34375 -2.0625 2.269531 -2.25 2.125 -2.375 C 1.988281 -2.507812 1.785156 -2.578125 1.515625 -2.578125 C 1.335938 -2.578125 1.160156 -2.546875 0.984375 -2.484375 C 0.816406 -2.421875 0.675781 -2.335938 0.5625 -2.234375 L 0.375 -2.53125 C 0.519531 -2.65625 0.695312 -2.75 0.90625 -2.8125 C 1.113281 -2.882812 1.332031 -2.921875 1.5625 -2.921875 Z M 1.421875 -0.28125 C 1.640625 -0.28125 1.828125 -0.328125 1.984375 -0.421875 C 2.140625 -0.523438 2.257812 -0.675781 2.34375 -0.875 L 2.34375 -1.34375 L 1.4375 -1.34375 C 0.9375 -1.34375 0.6875 -1.171875 0.6875 -0.828125 C 0.6875 -0.660156 0.75 -0.523438 0.875 -0.421875 C 1.007812 -0.328125 1.191406 -0.28125 1.421875 -0.28125 Z M 1.421875 -0.28125 "/></g></g><g style="fill:#90d02f;fill-opacity:1;"><g transform="translate(227.75503, 356.387195)"><path style="stroke:none" d="M 0.921875 -2.328125 C 1.015625 -2.523438 1.148438 -2.671875 1.328125 -2.765625 C 1.503906 -2.867188 1.726562 -2.921875 2 -2.921875 L 2 -2.53125 L 1.90625 -2.546875 C 1.601562 -2.546875 1.363281 -2.453125 1.1875 -2.265625 C 1.019531 -2.078125 0.9375 -1.8125 0.9375 -1.46875 L 0.9375 0 L 0.546875 0 L 0.546875 -2.890625 L 0.921875 -2.890625 Z M 0.921875 -2.328125 "/></g></g><g style="fill:#90d02f;fill-opacity:1;"><g transform="translate(229.961572, 356.387195)"><path style="stroke:none" d="M 3.0625 -1.328125 L 0.640625 -1.328125 C 0.660156 -1.023438 0.773438 -0.78125 0.984375 -0.59375 C 1.191406 -0.40625 1.457031 -0.3125 1.78125 -0.3125 C 1.957031 -0.3125 2.117188 -0.34375 2.265625 -0.40625 C 2.421875 -0.476562 2.554688 -0.578125 2.671875 -0.703125 L 2.890625 -0.453125 C 2.753906 -0.296875 2.59375 -0.175781 2.40625 -0.09375 C 2.21875 -0.0078125 2.003906 0.03125 1.765625 0.03125 C 1.472656 0.03125 1.210938 -0.03125 0.984375 -0.15625 C 0.753906 -0.289062 0.570312 -0.46875 0.4375 -0.6875 C 0.3125 -0.90625 0.25 -1.160156 0.25 -1.453125 C 0.25 -1.734375 0.3125 -1.984375 0.4375 -2.203125 C 0.5625 -2.429688 0.726562 -2.609375 0.9375 -2.734375 C 1.15625 -2.859375 1.398438 -2.921875 1.671875 -2.921875 C 1.929688 -2.921875 2.164062 -2.859375 2.375 -2.734375 C 2.59375 -2.609375 2.757812 -2.429688 2.875 -2.203125 C 3 -1.984375 3.0625 -1.734375 3.0625 -1.453125 Z M 1.671875 -2.578125 C 1.390625 -2.578125 1.15625 -2.488281 0.96875 -2.3125 C 0.78125 -2.132812 0.671875 -1.898438 0.640625 -1.609375 L 2.6875 -1.609375 C 2.664062 -1.898438 2.5625 -2.132812 2.375 -2.3125 C 2.1875 -2.488281 1.953125 -2.578125 1.671875 -2.578125 Z M 1.671875 -2.578125 "/></g></g></g></svg>